{
    "patcher": {
        "fileversion": 1,
        "appversion": {
            "major": 9,
            "minor": 1,
            "revision": 4,
            "architecture": "x64",
            "modernui": 1
        },
        "classnamespace": "box",
        "rect": [ 205.0, 139.0, 689.0, 855.0 ],
        "boxes": [
            {
                "box": {
                    "id": "obj-34",
                    "maxclass": "newobj",
                    "numinlets": 0,
                    "numoutlets": 0,
                    "patcher": {
                        "fileversion": 1,
                        "appversion": {
                            "major": 9,
                            "minor": 1,
                            "revision": 4,
                            "architecture": "x64",
                            "modernui": 1
                        },
                        "classnamespace": "box",
                        "rect": [ 682.0, 225.0, 1000.0, 780.0 ],
                        "visible": 1,
                        "boxes": [],
                        "lines": []
                    },
                    "patching_rect": [ 347.03, 687.65, 65.0, 22.0 ],
                    "text": "p Interface"
                }
            },
            {
                "box": {
                    "id": "obj-29",
                    "maxclass": "toggle",
                    "numinlets": 1,
                    "numoutlets": 1,
                    "outlettype": [ "int" ],
                    "parameter_enable": 0,
                    "patching_rect": [ 174.32431268692017, 218.60464334487915, 24.0, 24.0 ]
                }
            },
            {
                "box": {
                    "id": "obj-21",
                    "linecount": 2,
                    "maxclass": "comment",
                    "numinlets": 1,
                    "numoutlets": 0,
                    "patching_rect": [ 102.32557773590088, 116.21620845794678, 150.0, 33.0 ],
                    "presentation_linecount": 2,
                    "text": "csv \nlogger"
                }
            },
            {
                "box": {
                    "id": "obj-20",
                    "maxclass": "newobj",
                    "numinlets": 1,
                    "numoutlets": 0,
                    "patching_rect": [ 298.64862871170044, 555.4053683280945, 149.0, 22.0 ],
                    "text": "s smoothed_sensor_value"
                }
            },
            {
                "box": {
                    "id": "obj-19",
                    "maxclass": "newobj",
                    "numinlets": 1,
                    "numoutlets": 0,
                    "patching_rect": [ 245.94592952728271, 513.5134792327881, 115.0, 22.0 ],
                    "text": "s raw_sensor_value"
                }
            },
            {
                "box": {
                    "id": "obj-18",
                    "maxclass": "newobj",
                    "numinlets": 1,
                    "numoutlets": 0,
                    "patching_rect": [ 199.99998664855957, 467.56753635406494, 83.0, 22.0 ],
                    "text": "s sensor_time"
                }
            },
            {
                "box": {
                    "id": "obj-17",
                    "maxclass": "newobj",
                    "numinlets": 1,
                    "numoutlets": 0,
                    "patching_rect": [ 591.8918523788452, 424.32429599761963, 99.0, 22.0 ],
                    "text": "s frequncy_value"
                }
            },
            {
                "box": {
                    "id": "obj-25",
                    "maxclass": "message",
                    "numinlets": 2,
                    "numoutlets": 1,
                    "outlettype": [ "" ],
                    "patching_rect": [ 174.32431268692017, 267.56754970550537, 31.0, 22.0 ],
                    "text": "stop"
                }
            },
            {
                "box": {
                    "id": "obj-23",
                    "maxclass": "toggle",
                    "numinlets": 1,
                    "numoutlets": 1,
                    "outlettype": [ "int" ],
                    "parameter_enable": 0,
                    "patching_rect": [ 110.81080341339111, 225.67566061019897, 24.0, 24.0 ]
                }
            },
            {
                "box": {
                    "id": "obj-22",
                    "maxclass": "message",
                    "numinlets": 2,
                    "numoutlets": 1,
                    "outlettype": [ "" ],
                    "patching_rect": [ 110.81080341339111, 279.7297110557556, 32.0, 22.0 ],
                    "text": "start"
                }
            },
            {
                "box": {
                    "id": "obj-15",
                    "maxclass": "newobj",
                    "numinlets": 1,
                    "numoutlets": 0,
                    "patching_rect": [ 52.702699184417725, 393.24321699142456, 91.0, 22.0 ],
                    "text": "print @popup 1"
                }
            },
            {
                "box": {
                    "id": "obj-6",
                    "maxclass": "newobj",
                    "numinlets": 2,
                    "numoutlets": 1,
                    "outlettype": [ "signal" ],
                    "patching_rect": [ 482.432400226593, 424.32429599761963, 40.0, 22.0 ],
                    "text": "*~ 0.2"
                }
            },
            {
                "box": {
                    "id": "obj-40",
                    "maxclass": "newobj",
                    "numinlets": 1,
                    "numoutlets": 1,
                    "outlettype": [ "" ],
                    "patching_rect": [ 116.21620845794678, 331.0810589790344, 133.0, 22.0 ],
                    "saved_object_attributes": {
                        "filename": "stretch_osc_logger.js",
                        "parameter_enable": 0
                    },
                    "text": "js stretch_osc_logger.js"
                }
            },
            {
                "box": {
                    "id": "obj-39",
                    "maxclass": "newobj",
                    "numinlets": 3,
                    "numoutlets": 1,
                    "outlettype": [ "" ],
                    "patching_rect": [ 262.1621446609497, 279.7297110557556, 53.0, 22.0 ],
                    "text": "pack i i f"
                }
            },
            {
                "box": {
                    "id": "obj-38",
                    "maxclass": "comment",
                    "numinlets": 1,
                    "numoutlets": 0,
                    "patching_rect": [ 656.7567129135132, 354.054030418396, 150.0, 20.0 ],
                    "text": "this is the freq in Hz"
                }
            },
            {
                "box": {
                    "id": "obj-36",
                    "maxclass": "ezdac~",
                    "numinlets": 2,
                    "numoutlets": 0,
                    "patching_rect": [ 479.7296977043152, 521.6215867996216, 45.0, 45.0 ]
                }
            },
            {
                "box": {
                    "id": "obj-33",
                    "maxclass": "number",
                    "numinlets": 1,
                    "numoutlets": 2,
                    "outlettype": [ "", "bang" ],
                    "parameter_enable": 0,
                    "patching_rect": [ 591.8918523788452, 352.7026791572571, 50.0, 22.0 ]
                }
            },
            {
                "box": {
                    "id": "obj-32",
                    "maxclass": "newobj",
                    "numinlets": 2,
                    "numoutlets": 1,
                    "outlettype": [ "signal" ],
                    "patching_rect": [ 482.432400226593, 370.270245552063, 43.0, 22.0 ],
                    "text": "cycle~"
                }
            },
            {
                "box": {
                    "id": "obj-31",
                    "maxclass": "newobj",
                    "numinlets": 3,
                    "numoutlets": 1,
                    "outlettype": [ "" ],
                    "patching_rect": [ 478.37834644317627, 304.0540337562561, 87.0, 22.0 ],
                    "text": "clip 100. 1000."
                }
            },
            {
                "box": {
                    "id": "obj-30",
                    "maxclass": "newobj",
                    "numinlets": 6,
                    "numoutlets": 1,
                    "outlettype": [ "" ],
                    "patching_rect": [ 478.37834644317627, 251.35133457183838, 163.0, 22.0 ],
                    "text": "scale 2600. 3240. 100. 1000."
                }
            },
            {
                "box": {
                    "id": "obj-28",
                    "maxclass": "comment",
                    "numinlets": 1,
                    "numoutlets": 0,
                    "patching_rect": [ 491.89185905456543, 194.5945816040039, 150.0, 20.0 ],
                    "text": "sensor_time, raw, smooth"
                }
            },
            {
                "box": {
                    "id": "obj-8",
                    "maxclass": "newobj",
                    "numinlets": 1,
                    "numoutlets": 3,
                    "outlettype": [ "int", "int", "float" ],
                    "patching_rect": [ 386.48646068573, 198.64863538742065, 66.0, 22.0 ],
                    "text": "unpack i i f"
                }
            },
            {
                "box": {
                    "id": "obj-7",
                    "maxclass": "newobj",
                    "numinlets": 2,
                    "numoutlets": 2,
                    "outlettype": [ "", "" ],
                    "patching_rect": [ 386.48646068573, 158.10809755325317, 79.0, 22.0 ],
                    "text": "route /stretch"
                }
            },
            {
                "box": {
                    "id": "obj-2",
                    "maxclass": "newobj",
                    "numinlets": 1,
                    "numoutlets": 3,
                    "outlettype": [ "", "", "OSCTimeTag" ],
                    "patching_rect": [ 340.54051780700684, 116.21620845794678, 111.0, 22.0 ],
                    "text": "OpenSoundControl"
                }
            },
            {
                "box": {
                    "id": "obj-1",
                    "maxclass": "newobj",
                    "numinlets": 1,
                    "numoutlets": 1,
                    "outlettype": [ "" ],
                    "patching_rect": [ 340.54051780700684, 71.62161684036255, 133.0, 22.0 ],
                    "text": "udpreceive 8000 cnmat"
                }
            }
        ],
        "lines": [
            {
                "patchline": {
                    "destination": [ "obj-2", 0 ],
                    "source": [ "obj-1", 0 ]
                }
            },
            {
                "patchline": {
                    "destination": [ "obj-7", 0 ],
                    "source": [ "obj-2", 1 ]
                }
            },
            {
                "patchline": {
                    "destination": [ "obj-40", 0 ],
                    "source": [ "obj-22", 0 ]
                }
            },
            {
                "patchline": {
                    "destination": [ "obj-22", 0 ],
                    "source": [ "obj-23", 0 ]
                }
            },
            {
                "patchline": {
                    "destination": [ "obj-40", 0 ],
                    "source": [ "obj-25", 0 ]
                }
            },
            {
                "patchline": {
                    "destination": [ "obj-25", 0 ],
                    "source": [ "obj-29", 0 ]
                }
            },
            {
                "patchline": {
                    "destination": [ "obj-31", 0 ],
                    "source": [ "obj-30", 0 ]
                }
            },
            {
                "patchline": {
                    "destination": [ "obj-32", 0 ],
                    "order": 1,
                    "source": [ "obj-31", 0 ]
                }
            },
            {
                "patchline": {
                    "destination": [ "obj-33", 0 ],
                    "order": 0,
                    "source": [ "obj-31", 0 ]
                }
            },
            {
                "patchline": {
                    "destination": [ "obj-6", 0 ],
                    "source": [ "obj-32", 0 ]
                }
            },
            {
                "patchline": {
                    "destination": [ "obj-17", 0 ],
                    "source": [ "obj-33", 0 ]
                }
            },
            {
                "patchline": {
                    "destination": [ "obj-40", 0 ],
                    "source": [ "obj-39", 0 ]
                }
            },
            {
                "patchline": {
                    "destination": [ "obj-15", 0 ],
                    "source": [ "obj-40", 0 ]
                }
            },
            {
                "patchline": {
                    "destination": [ "obj-36", 1 ],
                    "order": 0,
                    "source": [ "obj-6", 0 ]
                }
            },
            {
                "patchline": {
                    "destination": [ "obj-36", 0 ],
                    "order": 1,
                    "source": [ "obj-6", 0 ]
                }
            },
            {
                "patchline": {
                    "destination": [ "obj-8", 0 ],
                    "source": [ "obj-7", 0 ]
                }
            },
            {
                "patchline": {
                    "destination": [ "obj-18", 0 ],
                    "order": 1,
                    "source": [ "obj-8", 0 ]
                }
            },
            {
                "patchline": {
                    "destination": [ "obj-19", 0 ],
                    "order": 1,
                    "source": [ "obj-8", 1 ]
                }
            },
            {
                "patchline": {
                    "destination": [ "obj-20", 0 ],
                    "order": 2,
                    "source": [ "obj-8", 2 ]
                }
            },
            {
                "patchline": {
                    "destination": [ "obj-30", 0 ],
                    "order": 0,
                    "source": [ "obj-8", 2 ]
                }
            },
            {
                "patchline": {
                    "destination": [ "obj-39", 2 ],
                    "order": 1,
                    "source": [ "obj-8", 2 ]
                }
            },
            {
                "patchline": {
                    "destination": [ "obj-39", 1 ],
                    "order": 0,
                    "source": [ "obj-8", 1 ]
                }
            },
            {
                "patchline": {
                    "destination": [ "obj-39", 0 ],
                    "order": 0,
                    "source": [ "obj-8", 0 ]
                }
            }
        ],
        "autosave": 0
    }
}